<?xml version="1.0" encoding="utf-8"?>
<!-- Generator: Adobe Illustrator 24.0.1, SVG Export Plug-In . SVG Version: 6.00 Build 0)  -->
<svg version="1.1" id="Слой_1" xmlns="http://www.w3.org/2000/svg" xmlns:xlink="http://www.w3.org/1999/xlink" x="0px" y="0px"
	 viewBox="0 0 70 70" style="enable-background:new 0 0 70 70;" xml:space="preserve">
<style type="text/css">
	.st0{fill:url(#SVGID_1_);}
	.st1{fill:url(#SVGID_2_);}
	.st2{fill:url(#SVGID_3_);}
	.st3{fill:url(#SVGID_4_);}
	.st4{fill:url(#SVGID_5_);}
	.st5{fill:url(#SVGID_6_);}
	.st6{fill:url(#SVGID_7_);}
</style>
<radialGradient id="SVGID_1_" cx="2240.1094" cy="-11051.4424" r="70.2173" gradientTransform="matrix(0.1408 1.000000e-04 1.000000e-04 -0.1412 -281.2594 -1529.5632)" gradientUnits="userSpaceOnUse">
	<stop  offset="0" style="stop-color:#4995D1"/>
	<stop  offset="1" style="stop-color:#1F2466"/>
</radialGradient>
<path class="st0" d="M40.5,39.8c-2.6,2.9-7,3.1-9.9,0.5c-2.9-2.6-3.1-7.1-0.5-10s7.1-3.1,9.9-0.5C42.9,32.4,43.1,36.9,40.5,39.8z"/>
<linearGradient id="SVGID_2_" gradientUnits="userSpaceOnUse" x1="1253.2729" y1="1600.6029" x2="1282.6069" y2="1613.0944" gradientTransform="matrix(0.7071 0.7071 0.7071 -0.7071 -1992.3373 249.2994)">
	<stop  offset="0" style="stop-color:#4995D1"/>
	<stop  offset="1" style="stop-color:#1F2466"/>
</linearGradient>
<path class="st1" d="M37.1,10.9c0.6,0.6,1.1,1.2,1.6,1.8c2.8,3.4,4.2,6.7,4.2,6.7c1.8,0.3,3.5,0.4,5.1,0.4c0.1,0,0.2,0,0.3,0
	c0.1,0,0.2,0,0.3,0c3.5-0.3,8-1.6,12.1-5.8c0.1-0.1,0.3-0.3,0.4-0.4c-0.6-0.8-1.3-1.5-2-2.2c-12-12-30.7-13-43.9-3.1
	C25.5,3.1,32.7,6.6,37.1,10.9z"/>
<linearGradient id="SVGID_3_" gradientUnits="userSpaceOnUse" x1="-1383.2791" y1="-1212.4094" x2="-1353.9451" y2="-1199.9178" gradientTransform="matrix(0.2588 -0.9659 -0.9659 -0.2588 -800.3336 -1591.1877)">
	<stop  offset="0" style="stop-color:#4995D1"/>
	<stop  offset="1" style="stop-color:#1F2466"/>
</linearGradient>
<path class="st2" d="M13.3,45.1c0.2-0.8,0.4-1.6,0.7-2.3c1.5-4.1,3.7-7,3.7-7c-0.6-1.7-1.4-3.2-2.2-4.6c-0.1-0.1-0.1-0.2-0.2-0.3
	c-0.1-0.1-0.1-0.1-0.2-0.2c-2-2.9-5.4-6.1-11.1-7.6c-0.2,0-0.4-0.1-0.6-0.1C3.2,24,2.9,25,2.6,26c-4.4,16.4,4.1,33.1,19.2,39.6
	C12.3,59.1,11.7,51.2,13.3,45.1z"/>
<linearGradient id="SVGID_4_" gradientUnits="userSpaceOnUse" x1="-2613.4011" y1="2543.9985" x2="-2584.0676" y2="2556.4897" gradientTransform="matrix(-0.9659 0.2588 0.2588 0.9659 -3115.7625 -1738.5006)">
	<stop  offset="0" style="stop-color:#4995D1"/>
	<stop  offset="1" style="stop-color:#1F2466"/>
</linearGradient>
<path class="st3" d="M54.9,48.7c-0.8,0.2-1.6,0.4-2.3,0.5c-4.3,0.8-7.9,0.2-7.9,0.2c-1.2,1.4-2.1,2.8-2.8,4.2c0,0.1-0.1,0.2-0.1,0.3
	c0,0.1-0.1,0.2-0.1,0.3c-1.5,3.2-2.6,7.8-1,13.4c0,0.2,0.1,0.4,0.2,0.6c1-0.2,2-0.4,2.9-0.6C60,63.2,70.3,47.5,68.3,31.1
	C67.5,42.6,60.9,47,54.9,48.7z"/>
<linearGradient id="SVGID_5_" gradientUnits="userSpaceOnUse" x1="4.04" y1="20.4154" x2="37.11" y2="20.4154">
	<stop  offset="0" style="stop-color:#F4F414"/>
	<stop  offset="1" style="stop-color:#FF5D15"/>
</linearGradient>
<path class="st4" d="M15.2,8.1c0,0-7.3,4.6-11.1,13.8c1,0.2,11.2,2.2,15,13.5c0.9-0.6,3.8-2.8,5.7-9c2.3-7.5,6.7-13,12.4-15.4
	C37.1,10.9,29.9,0.7,15.2,8.1z"/>
<linearGradient id="SVGID_6_" gradientUnits="userSpaceOnUse" x1="38.9595" y1="16.5758" x2="15.1117" y2="14.1447" gradientTransform="matrix(1 0 0 -1 0 72)">
	<stop  offset="0" style="stop-color:#4995D1"/>
	<stop  offset="1" style="stop-color:#1F2466"/>
</linearGradient>
<path class="st5" d="M38.3,62.1c0-3.8,1-8.8,5.3-13.6l0-0.1c-0.7-0.7-3.1-2.5-9.3-1.1c-7.6,1.7-16.1,1.5-21-2.2
	c0,0-5.3,11.4,8.5,20.4c0,0,7.6,4,17.5,2.8C39.1,67.8,38.3,65.4,38.3,62.1z"/>
<linearGradient id="SVGID_7_" gradientUnits="userSpaceOnUse" x1="54.3165" y1="51.0665" x2="59.1787" y2="26.524" gradientTransform="matrix(1 0 0 -1 0 72)">
	<stop  offset="0" style="stop-color:#4995D1"/>
	<stop  offset="1" style="stop-color:#1F2466"/>
</linearGradient>
<path class="st6" d="M62,14.6c-1.1,1.3-6.3,6.7-14.9,6.7c-1.4,0-2.9-0.1-4.4-0.5l-0.1,0c-0.3,1-0.5,4,3.7,8.5
	c5.3,5.8,9.4,13.2,8.6,19.3c0,0,12.5-1.1,13.4-17.6C68.3,31.1,68,22.5,62,14.6z"/>
</svg>
